PathFileType	4	(X/Y/Z)	/home/abdul/Desktop/myosuite/custom_workspace/IK/output/S4_12_2.trc
DataRate	CameraRate	NumFrames	NumMarkers	Units	OrigDataRate	OrigDataStartFrame	OrigNumFrames
200.0	200.0	45	3	mm	200.0	1	1054
Frame#	Time	V_Shoulder			V_Elbow			V_Wrist		
		X1	Y1	Z1	X2	Y2	Z2	X3	Y3	Z3

1	0.0	-95.0386649174265	591.5378563798353	272.65920609060953	-200.03660409837775	436.18881415467763	33.066250336134146	-226.14805362540255	213.20826918247124	27.491429286614263
2	0.005	-95.04061934694518	591.5415460510529	272.6587017850968	-200.03655677458426	436.2061063339537	33.05940772350448	-226.11991985245064	213.23154599775225	27.518487578114573
3	0.01	-95.04252806165782	591.5459168990378	272.65844331006997	-200.036895586115	436.2226959339771	33.054065080161365	-226.0903325534366	213.2543672617951	27.545956276560094
4	0.015	-95.04438586053232	591.5509832444922	272.6584323643172	-200.0376330093103	436.23848006471087	33.050310995761464	-226.05933970840215	213.27661868897098	27.573742496832608
5	0.02	-95.0461876562229	591.5567573177698	272.65866932921284	-200.03878029903453	436.25335403788904	33.048231651308775	-226.026997389178	213.2981827475092	27.60174749159158
6	0.025	-95.04792850210238	591.56324911426	272.6591531997167	-200.04034737650613	436.2672117079018	33.04791033758593	-225.9933699362409	213.31893898229566	27.629866769735287
7	0.03	-95.04960361975361	591.5704662522703	272.6598815182742	-200.04234271684555	436.27994583596944	33.04942696088409	-225.958530111119	213.33876436596643	27.65799024481762
8	0.035	-95.0512084268283	591.578413834077	272.6608503120172	-200.04477323675133	436.29144847731305	33.052857537332514	-225.92255922251556	213.3575336783157	27.68600241435454
9	0.04	-95.05273856517789	591.5870943108225	272.6620540336642	-200.04764418272998	436.3016113909281	33.05827367723123	-225.8855472243339	213.37511991393177	27.71378257087671
10	0.045	-95.05418992915783	591.5965073519366	272.66348550651105	-200.05095902031778	436.31032647145213	33.06574206089127	-225.8475927838055	213.39139471785927	27.741205045500188
11	0.05	-95.05555869400384	591.6066497197662	272.6651358738945	-200.0547193247467	436.3174862025101	33.07532390758713	-225.80880331795368	213.4062288489679	27.768139484695226
12	0.055	-95.05684134417534	591.617515150091	272.66699455350346	-200.05892467351788	436.32298413079934	33.08707443932449	-225.76929499666005	213.41949267058578	27.794451160834516
13	0.06	-95.05803470155924	591.6290942392011	272.66904919689745	-200.06357254135506	436.32671536006194	33.1010423412218	-225.72919271064768	213.4310566678286	27.82000131699629
14	0.065	-95.05913595342447	591.6413743382005	272.6712856545794	-200.06865819802067	436.32857706396754	33.117269220398335	-225.68863000274894	213.4407919909254	27.84464754638538
15	0.07	-95.06014268001634	591.6543394551945	272.6736879469551	-200.0741746094826	436.32846901680995	33.13578906535077	-225.64774896088915	213.44857102370682	27.86824420661588
16	0.075	-95.06105288167669	591.6679701659965	272.67623824149126	-200.08011234292601	436.3262941407932	33.15662770788718	-225.60670007129	213.4542679762864	27.890642868973764
17	0.08	-95.0618650053759	591.6822435339841	272.6789168363676	-200.08645947610745	436.321959068561	33.179802289769434	-225.56564203047975	213.45775950082253	27.91169280264574
18	0.085	-95.06257797054052	591.6971330397006	272.68170215089594	-200.09320151155129	436.31537471949446	33.205320736292364	-225.52474151478717	213.45892532910906	27.931241493763032
19	0.09	-95.06319119405912	591.7126085207866	272.68457072295655	-200.10032129608646	436.30645688817776	33.23318123910025	-225.48417290609967	213.4576489305952	27.949135198965408
20	0.095	-95.06370461434973	591.7286361227899	272.6874972136796	-200.10779894622118	436.29512684330837	33.26337175060724	-225.444117972776	213.45381818929238	27.965219533041832
21	0.1	-95.06411871437012	591.745178261382	272.6904544195727	-200.11561177984743	436.28131193519965	33.29586949244843	-225.40476550472636	213.4473260978761	27.979340090050606
22	0.105	-95.06443454345337	591.7621935964681	272.6934132922697	-200.12373425476096	436.2649462099048	33.33064048044093	-225.3663109018022	213.43807146714593	27.991343097163494
23	0.11	-95.06465373785102	591.7796370186528	272.6963429660487	-200.1321379144733	436.2459710278687	33.36763906857925	-225.3289557147799	213.42595964885817	28.00107610031579
24	0.115	-95.06477853986678	591.7974596484723	272.69921079323547	-200.14079134178172	436.2243356848961	33.406807514627026	-225.2929071383731	213.4109032698009	28.008388680578207
25	0.12	-95.06481181546481	591.8156088487784	272.7019823875829	-200.14966012054828	436.1999980331118	33.44807556989463	-225.2583774558663	213.39282297483584	28.013133199996965
26	0.125	-95.06475707023783	591.8340282506025	272.70462167568184	-200.15870680612377	436.1729250994765	33.49136009581196	-225.22558343513464	213.37164817648903	28.015165575476296
27	0.13	-95.06461846362195	591.8526577927937	272.7070909564291	-200.16789090483246	436.1430936993188	33.536564709914565	-225.19474567599045	213.34731780853411	28.01434607910354
28	0.135	-95.06440082124722	591.8714337756654	272.7093509685468	-200.1771688629135	436.11049104224236	33.58357946385997	-225.1660879089868	213.31978108087367	28.010540163140774
29	0.14	-95.0641096453157	591.890288928845	272.71136096611076	-200.18649406528922	436.0751153276736	33.63228055607921	-225.13983624600266	213.2889982328963	28.00361930773052
30	0.145	-95.06375112290097	591.9091524934585	272.7130788020165	-200.1958168445046	436.03697632723004	33.682530081644835	-225.11621838313798	213.25494128235715	27.99346188918578
31	0.15	-95.06333213206678	591.9279503187332	272.7144610192743	-200.20508450015248	435.99609595100856	33.73417582190138	-225.09546275665974	213.21759476671312	27.97995406655805
32	0.155	-95.06286024570637	591.9466049730423	272.7154629499907	-200.21424132906645	435.95250879482234	33.78705107635618	-225.077797652958	213.17695647372682	27.962990684001515
33	0.16	-95.0623437330075	591.9650358693556	272.71603882186173	-200.22322866652826	435.90626266535594	33.84097453926804	-225.0634502736967	213.1330381580513	27.942476186277705
34	0.165	-95.0617915584531	591.9831594050005	272.7161418719673	-200.2319849386987	435.85741908015257	33.895750223297426	-225.05264575757576	213.085866240408	27.918325544574053
35	0.17	-95.06121337827234	592.0008891155774	272.7157244676214	-200.24044572644073	435.8060537393089	33.95116743249428	-225.04560616035678	213.03548248588254	27.890465189641986
36	0.175	-95.0606195342624	592.0181358428057	272.71473823399975	-200.24854384065958	435.75225696572085	34.00700078679895	-225.0425493950474	212.98194465778596	27.858833949096805
37	0.18	-95.0600210449066	592.0348079160179	272.71313418823496	-200.25620940923847	435.6961341107061	34.063010300115856	-225.04368813438379	212.92532714346117	27.823383985563282
38	0.185	-95.05942959372146	592.0508113469494	272.7108628796305	-200.26336997560082	435.6378059218234	34.1189415138907	-225.04922867799883	212.86572154835858	27.784081732198306
39	0.19	-95.0588575147713	592.0660500374103	272.7078745356202	-200.2699506088777	435.5774088697147	34.17452568797774	-225.05936978691352	212.8032372546637	27.740908821976518
40	0.195	-95.05831777529659	592.0804259993565	272.70411921306305	-200.2758740256063	435.5150954308193	34.22948005042568	-225.0743014882401	212.73800194072726	27.693863006986554
41	0.2	-95.05782395540939	592.0938395868135	272.6995469544352	-200.28106072282918	435.45103432284225	34.28350810763781	-225.09420385323617	212.67016205753532	27.642959063856257
42	0.205	-95.05739022481782	592.1061897390399	272.69410794845015	-200.2854291224056	435.3854106899107	34.33630001617513	-225.11924575209804	212.59988325845455	27.588229681305116
43	0.21	-95.05703131654894	592.1173742342554	272.68775269461315	-200.28889572628663	435.3184262344187	34.387533017269924	-225.14958358912912	212.52735077850303	27.529726325712538
44	0.215	-95.05676249764933	592.1272899531895	272.68043217118674	-200.291375282444	435.25029929263974	34.43687193490206	-225.18536002216084	212.45276975942832	27.467520080491923
45	0.22	-95.05659953685084	592.1358331516516	272.67209800601904	-200.29278096107817	435.1812648512878	34.48396973806147	-225.22670267034312	212.3763655169219	27.40170245497421
